<svg width="200" height="200" xmlns="http://www.w3.org/2000/svg" version="1.1" xml:space="preserve" clip-rule="evenodd">
  <style>
    path {
      fill: black
    }
    @media (prefers-color-scheme: dark) {
      path {
        fill: white
      }
    }
    svg { 
      scale: 80%
    }
  </style>
  <title>Obsidian Projects Favicon</title>
    <g>
      <path d="m177.10576,32.69271l22.66318,0l0,167.2396l-167.23642,0l0,-22.83506l22.75867,0l0,0.08276l121.71908,0l0,-0.08276l0.09549,0l0,-144.40454zm-42.46163,22.7523l-79.35295,0l0,79.18425l-22.66318,0l0,-101.93655l102.01613,0l0,22.7523z"/>
      <g transform="matrix(1.51672 0 0 1.51672 -996.726 -54.2611)">
        <path d="m767.41754,146.03817l-110.26,0l0,-110.263l110.26,0l0,110.263zm-15,-95.263l-80.26,0l0,80.263l80.26,0l0,-80.263z"/>
      </g>
    </g>
</svg>